<?xml version="1.0" encoding="UTF-8"?>
<svg xmlns="http://www.w3.org/2000/svg" xmlns:xlink="http://www.w3.org/1999/xlink" viewBox="0 0 200 58.09">
  <defs>
    <style>
      .cls-1 {
        fill: #ffd200;
      }

      .cls-1, .cls-2, .cls-3, .cls-4, .cls-5, .cls-6, .cls-7 {
        stroke-width: 0px;
      }

      .cls-1, .cls-2, .cls-8 {
        mix-blend-mode: multiply;
      }

      .cls-2, .cls-6 {
        fill: #e31933;
      }

      .cls-3 {
        fill: url(#radial-gradient);
      }

      .cls-9 {
        isolation: isolate;
      }

      .cls-4 {
        fill: #231f20;
      }

      .cls-5 {
        fill: #d1d3d4;
      }

      .cls-7 {
        fill: #fff;
      }
    </style>
    <radialGradient id="radial-gradient" cx="27.32" cy="28.69" fx="27.32" fy="28.69" r="21.18" gradientTransform="translate(3.18 1) scale(.96)" gradientUnits="userSpaceOnUse">
      <stop offset="0" stop-color="#fff"/>
      <stop offset=".53" stop-color="#fdfdfd"/>
      <stop offset=".71" stop-color="#f6f6f6"/>
      <stop offset=".85" stop-color="#eaebeb"/>
      <stop offset=".96" stop-color="#d9dbdc"/>
      <stop offset="1" stop-color="#d1d3d4"/>
    </radialGradient>
  </defs>
  <g class="cls-9">
    <g id="Layer_1" data-name="Layer 1">
      <g>
        <g>
          <path class="cls-3" d="M29.46,48.96c-11.23,0-20.37-9.14-20.37-20.37,0-11.23,9.14-20.37,20.37-20.37,11.23,0,20.37,9.14,20.37,20.37,0,11.23-9.14,20.37-20.37,20.37Z"/>
          <path class="cls-5" d="M29.46,48.96c-11.23,0-20.37-9.14-20.37-20.37,0-11.23,9.14-20.37,20.37-20.37,11.23,0,20.37,9.14,20.37,20.37,0,11.23-9.14,20.37-20.37,20.37ZM29.46,8.49c-11.08,0-20.1,9.02-20.1,20.1,0,11.08,9.02,20.1,20.1,20.1s20.1-9.02,20.1-20.1c0-11.08-9.02-20.1-20.1-20.1Z"/>
          <path class="cls-1" d="M49.69,28.14c0,.09-.36.39-.74.63,0,0-.02.01-.03.02-.52.28-1.26.55-2.18.79-.94.25-2.11.47-3.39.67-1.28.2-2.71.34-4.25.48,0,0,0,0,0,0-1.97.18-3.21.25-4.78.33-1.67.07-3.4.11-5.16.1,0,.22,0,.45,0,.67,0,1.58,0,3.09.01,4.51q.04,7.77.28,12.49c11.18,0,20.24-9.06,20.24-20.23,0,0,0-.29,0-.45Z"/>
          <g>
            <path class="cls-4" d="M29.16,31.83c0,1.58,0,3.09.01,4.51q3.24,3.07,4.59,4.43c.36-2.57.56-5.64.55-9.04,0-.22,0-.45,0-.67-2.05.08-3.4.11-5.16.1,0,.22,0,.45,0,.67Z"/>
            <path class="cls-4" d="M36.58,44.22c-.71-1.15-1.35-1.91-2.82-3.44-.69,4.93-1.92,7.96-3.43,8.03.13,0,.33-.02.45-.02.16-.01.36-.03.52-.04,2.09-.19,3.9-1.79,5.27-4.52Z"/>
            <path class="cls-4" d="M38.85,35.96s-1.17,6.08-2.27,8.26c.63,1.22.66,1.71.41,2.51,1.96-1.49,3.58-3.74,4.7-6.53-.72-1.46-1.2-2.23-2.84-4.25Z"/>
            <path class="cls-4" d="M33.05,48.51c.44-.08.42-.09,1.23-.27l.49-.14c1.49-.46,1.76-.7,2.22-1.39-1.33,1-2.76,1.62-4.35,1.87l.41-.07Z"/>
            <path class="cls-4" d="M42.05,43.55c2.92-3.3,4.7-7.97,4.69-13.3,0-.22,0-.45-.01-.67-.94.25-2.11.47-3.39.67.02.22.03.45.03.68,0,3.46-.58,6.61-1.65,9.27.6,1.54.61,2.19.33,3.35Z"/>
            <path class="cls-4" d="M39.09,30.73c-1.97.18-3.21.25-4.78.33,2.77,2.88,3.36,3.56,4.53,4.9.17-1.43.25-2.95.25-4.54,0-.23,0-.47,0-.69Z"/>
          </g>
          <path class="cls-4" d="M25.02,9.4c1.13-.46,2.21-.93,4.4-1.05h0c-1.48.13-3.02.55-4.4,1.05"/>
          <g class="cls-8">
            <path class="cls-6" d="M43,30.25c-1.05-.14-1.94-1.92-1.47-3.73-1.48,1.02-3.15-1.08-2.91-3.03.13-1.03.8-1.95,1.98-1.52-.48-1.65-1.08-3.21-1.78-4.64-1.05.13-2.19.24-3.41.33,1.08,1.63.02,3.15-1.49,2.91-1.09-.18-2.12-1.32-1.83-2.69-.89.61-2.71.37-2.88-1.57-.05,4.12-.07,9.38-.07,14.85,5.38.05,11.68-.52,14.19-.91,0,0,0,0,0,0-.1,0-.24.01-.34,0Z"/>
          </g>
          <g class="cls-8">
            <path class="cls-6" d="M16.38,34.31c1.5-.58,3.39,2.02,2.73,3.76-.3.8-1.1,1.02-1.93.54.45,1.52,1.03,2.9,1.72,4.13,1.06.15,2.26.27,3.57.37-1.05-1.29-.21-2.35,1.19-2.28,1.2.06,2.79,1.06,2.45,2.43,1.08-.49,2.91-.09,3.13,1.32-.05-3.03-.09-7.49-.1-12.75,0-.23,0-.44,0-.67-1.71,0-3.44-.06-5.16-.13-3.66-.15-6.15-.36-9.21-.88,0,0,0,0,0,0,1.57.53,2,2.87,1.59,4.16Z"/>
          </g>
          <path class="cls-2" d="M39.04,15.66h0s.01,0,.01,0h0s.01,0,.01,0c.2-.03.38-.06.56-.1,1.16-.21,3.78-.84,3.78-1.61,0,0,1.03,1.03,1.79,2.47.09.16.15.3.23.53.09.25.15.55.14.69-.03.44-.31.44-.6.32-.03-.01-.06-.02-.09-.04-1.04-.47-1.38-1.42-1.58-1.82-.53.17-1.4.55-2.13.69-.08.02-.24.05-.33.07.86,1.41,1.67,3.09,2.26,4.72,1.02-1.05,2.61.9,2.69,2.77.05,1.1-.45,2.08-1.46,1.73.81,1.49.55,3.68-.98,4.16-.25-4.91-1.09-9.27-4.32-14.58h0"/>
          <path class="cls-2" d="M39.02,15.67h0c-2.58-3.94-4.61-5.37-7.22-6.4-.52-.21-2.29-.9-2.38-.92v.02h0c.46.67,1.38,1.07,1.58,1.13-.06.24-.01.73.84,1.35.13.1.26.17.38.23,1.31.69,1.61.15,1.67-.06,0,0,.02-.01.02-.02.4.3,1.18.92,2.05,1.9.5.6.97,1.12,1.32,1.64-.81.1-1.89.2-2.96.27-.06-1.29-.99-1.93-1.58-2.15-1.28-.48-1.7,1.03-1.15,2.09-1.01-.55-2.21-.06-2.38,1.54,4.01-.02,6.76-.2,9.8-.63h0,0"/>
          <path class="cls-2" d="M39.27,12.01s-.02-.09,0-.14c.01-.05.06-.1.06-.1,0,0,.02-.05.1-.1.21-.12.82-.18,2.51.99-3.51-2.76-7.29-3.89-10.49-4.21-.45-.05-1.29-.09-1.29-.09,1.02.09,1.71.36,1.88.42.13.05.23.11.3.17,0,0,.01,0,.01,0,.2.02.43.06.72.15.31.09.84.28,1.3.5.46.22,1.16.71,1.16.99-.11.06-.14.08-.45,0,1.2.85,2.91,2.46,3.93,3.64.7-.13,1.74-.28,2.22-.44-.03.03-1.58-1.13-1.93-1.79Z"/>
          <path class="cls-2" d="M18.7,43.86c-1.74-.31-2.73-.58-3.4-.92-.11-.06-.15-.06-.17-.06-.01,0-.99-1-1.84-2.11-.62-.81-1.15-1.72-1.2-1.8,0,0,.14,0,.22.03.91.3,2.33,2.78,2.34,2.81.56.21,1.3.41,2.18.59-.83-1.25-1.53-2.66-2.06-4.19-1.26.64-2.87-2.7-2.36-4.11.1-.29.44-.88,1.29-.24-.64-1.49-.47-3.72,1.09-3.71.04,4.92.71,9.16,3.91,13.71"/>
          <path class="cls-2" d="M29.23,44.87c-.17.7-1.16,1.37-2.55.8.65.86.09,1.6-1.06,1.39-.89-.16-1.95-.88-2.03-1.59-1.1-.08-2.1-.19-3-.31.85.99,1.8,1.79,2.82,2.39.12-.05.31-.04.92.17.78.27,1.52.64,2.29.91,0,0-.16-.02-.16-.02-.59-.09-.73-.12-1.06-.19-1.49-.29-4.09-1.14-6.7-4.56h0,0c3.14.49,6.2.69,10.56.72-.01.08-.01.2-.03.28"/>
          <path class="cls-1" d="M29.41,8.35c-10.85,0-19.98,8.86-20.19,19.85v.02s.12.23.54.5h0s0,0,0,0c.43.27,1.06.55,1.89.77,1.03.26,2.11.48,3.11.65h.02c3.06.52,5.55.74,9.21.89,1.72.07,3.45.14,5.16.13,0-1.03,0-6.91.04-12.59,0-.73.02-1.5.02-2.27.04-3.7.12-7.46.19-7.96h0Z"/>
          <path class="cls-4" d="M39.11,46.38c-1.14.64-1.37.66-2.9,1.29-.43.18-.83.28-1.27.4,2.73-.73,6.46-3.79,7.12-4.53-.33.74-.58,1.22-1.39,1.87-.22.18-1.19.76-1.56.97Z"/>
          <path class="cls-4" d="M11.65,29.49c-.84-.21-1.46-.5-1.89-.77.22-7.32,4.29-13.82,10.22-17.38-1.4,1.24-2.02,1.98-2.73,3.67-3.33,3.82-5.45,8.96-5.6,14.48"/>
          <path class="cls-4" d="M20,11.34c1.49-1.07,2.33-1.85,4.68-2.42,1.65-.4,3.1-.57,4.73-.57h0c-3.41.15-6.62,1.31-9.41,2.99"/>
          <path class="cls-4" d="M18.92,30.7c-1.48-.14-2.88-.34-4.13-.56.08-3.67.85-7.19,2.18-10.3.51,2.05.95,3.15,2.39,5.57-.26,1.71-.41,3.49-.44,5.29"/>
          <path class="cls-4" d="M29.22,16.31c-.03,2.23-.04,4.52-.04,6.29-.01,1.75-.02,3.02-.02,3.27-1.99-2.09-3.06-3.26-4.51-5.11.98-6.29,2.74-11.26,4.77-12.4h0c-.07.6-.15,4.17-.19,7.96Z"/>
          <path class="cls-4" d="M22.12,16.07c-1.27,2.68-2.22,5.89-2.75,9.35,1.24,1.84,2,2.91,4.47,5.61.03-3.62.32-7.13.81-10.28-1.48-2.02-1.95-2.98-2.53-4.67Z"/>
          <path class="cls-4" d="M48.91,28.79c0,.22.01.45.01.67.01,7.15-3.48,13.11-8.95,16.4l-.14.11c2.57-1.58,5.82-4.25,7.88-8.66,2.21-4.35,1.97-9.16,1.97-9.16-.11.2-.43.45-.77.64Z"/>
          <path class="cls-4" d="M25.02,9.4c-2.95,1.16-5.61,3.14-7.76,5.61-.59,1.84-.59,2.87-.29,4.83,1.31-3.07,3.15-5.73,5.31-7.71.67-1.16,1.09-1.85,2.74-2.73Z"/>
          <path class="cls-4" d="M22.11,16.08c-.37-1.65-.4-2.49.16-3.93,2.11-1.94,4.55-3.39,7.14-3.8-2.84.76-5.41,3.74-7.3,7.73"/>
        </g>
        <g>
          <g>
            <path class="cls-7" d="M6.94,15.37l-1.66-.82c-.37-.19-.44-.38-.26-.76l.03-.05-.22-.11-.77,1.55.22.11.03-.05c.17-.3.27-.4.43-.4.11,0,.26.05.51.18l1.43.71c1.06.53.92,1.37.61,1.98-.29.59-.72.91-1.22.91-.23,0-.47-.06-.72-.19l-1.71-.85c-.31-.15-.35-.29-.18-.63l.05-.11-.22-.11-.84,1.69.22.11.03-.05c.14-.28.23-.37.35-.37.07,0,.16.03.29.09l1.8.89c.27.13.55.2.82.2.69,0,1.3-.44,1.69-1.24.69-1.38.09-2.29-.7-2.69Z"/>
            <path class="cls-7" d="M9.06,8.84c0-.1.07-.23.25-.45l.04-.05-.19-.16-1.11,1.32.19.16.04-.04c.22-.25.34-.34.44-.34.08,0,.16.05.29.15l1.98,1.67-4.54.29-.75.89.19.16.04-.04c.15-.16.28-.25.45-.3l2.56,2.16c.19.16.25.32-.02.64l-.06.07.19.16,1.1-1.31-.19-.16-.04.05c-.21.25-.33.34-.45.34h0c-.09,0-.2-.06-.37-.2l-2.14-1.8,5.01-.32.17-.2-2.98-2.51c-.08-.07-.11-.12-.12-.17Z"/>
            <path class="cls-7" d="M14.34,9.31c-.16.14-.28.2-.38.2s-.2-.07-.34-.23l-1.86-2.24c-.27-.33-.22-.46.08-.72l.05-.04-.16-.19-1.37,1.14.16.19.05-.03c.15-.11.25-.16.33-.16.09,0,.18.06.3.2l1.87,2.25c.28.33.28.44-.01.7l-.04.04.16.19,1.38-1.14-.16-.19-.05.04Z"/>
            <path class="cls-7" d="M17,3.02l.05-.03-.13-.21-1.47.86.12.22.05-.03c.22-.13.36-.19.47-.19.07,0,.11.03.15.09.04.07.07.2.11.41l.47,2.84-2.5-1.94c-.09-.07-.14-.14-.14-.2,0-.11.15-.26.45-.44l.05-.03-.13-.21-1.73,1.02.13.21.05-.03c.15-.09.24-.12.33-.12.12,0,.25.08.45.24l3.2,2.48.37-.21-.64-3.91c-.07-.44,0-.64.28-.81Z"/>
            <path class="cls-7" d="M22.58,4.16v.04c.03.62-.05.8-.46.93l-1,.34c-.08.03-.13.04-.18.04-.08,0-.15-.04-.22-.24l-.46-1.33,1.04-.36c.09-.03.15-.04.19-.04.1,0,.2.06.35.37l.02.05.23-.08-.46-1.35-.23.08v.05c.11.38.03.48-.16.55l-1.1.38-.51-1.48,1.31-.45c.05-.02.09-.03.14-.03.11,0,.27.06.5.5l.02.05.23-.08-.41-.99-3.23,1.11.08.24.2-.07c.11-.04.2-.06.28-.06.16,0,.25.09.34.36l.95,2.74c.07.2.08.31.04.4-.05.1-.18.18-.43.27l-.24.08.08.23,3.55-1.22-.26-1.12-.22.07Z"/>
            <path class="cls-7" d="M29.19,4.11c-.48.03-.9-.13-1.39-.52l-.6-.48c-.3-.24-.52-.41-.77-.56.5-.25.77-.72.71-1.23-.09-.79-.85-1.19-2.04-1.05-.44.05-.58.07-.86.12-.08.01-.18.03-.28.05-.23.04-.46.08-.57.09h-.06s.03.25.03.25l.21-.02c.05,0,.1,0,.14,0,.21,0,.32.07.37.44l.34,2.87c.05.43-.06.52-.43.57l-.18.02.03.25,2.05-.24-.03-.25-.21.02c-.06,0-.11.01-.16.01-.22,0-.34-.06-.38-.4l-.13-1.09c.08,0,.17,0,.29-.03.18-.02.28-.04.45-.07h0c.13.07.38.22.75.51l.5.4c.69.54,1.04.77,2.25.57h.05s-.02-.24-.02-.24h-.06ZM26.39,1.46c.04.34-.02.61-.18.81-.17.22-.47.36-.89.41h-.09c-.09.02-.17.03-.27.04l-.25-2.13c.09-.02.17-.03.28-.04.87-.1,1.32.18,1.4.92Z"/>
            <path class="cls-7" d="M31.75,1.92c-.47-.35-.92-.67-.88-1.09.03-.35.33-.56.75-.53.45.04.84.37.99.85v.04s.24.02.24.02l-.06-1-.19-.02-.02.02s-.05.04-.07.04h-.02c-.08,0-.15-.04-.23-.07-.14-.06-.32-.14-.68-.17-.73-.06-1.31.36-1.36.95-.05.66.53,1.1,1.1,1.52.48.36.94.7.91,1.14-.04.51-.52.71-.95.68-.53-.04-.94-.44-1.03-1v-.05s-.25-.02-.25-.02l.07,1.17.2.02.02-.02s.04-.04.09-.04h0s.11.03.19.06c.19.07.49.18.75.2.05,0,.1,0,.15,0h0c.77,0,1.35-.46,1.4-1.12.06-.7-.57-1.16-1.12-1.57Z"/>
            <path class="cls-7" d="M34.65.74l.05.02c.35.1.43.2.36.52l-.62,2.86c-.08.38-.16.44-.36.44-.05,0-.12,0-.21-.02h-.06s-.05.23-.05.23l1.75.38.05-.24h-.06c-.22-.06-.34-.12-.4-.2-.05-.08-.05-.2-.01-.39l.62-2.84c.08-.34.18-.41.36-.41.07,0,.15.01.26.03h.06s.05-.23.05-.23l-1.75-.38-.05.24Z"/>
            <path class="cls-7" d="M41.73,2.67s-.01.02-.05.02c-.03,0-.07,0-.12-.03l-3.07-1.22s-.07-.04-.11-.06c-.02-.02-.02-.03-.02-.05v-.05s-.21-.09-.21-.09l-.57,1.1.22.09.03-.04c.23-.38.38-.53.53-.53.04,0,.09,0,.14.03l1.06.42-1.23,3.1c-.1.25-.2.3-.32.3-.08,0-.17-.02-.3-.07l-.29-.11-.09.23,2.12.84.09-.23-.29-.12c-.19-.07-.29-.15-.33-.24-.04-.08-.02-.19.04-.35l1.23-3.1,1.05.42c.21.08.28.22.15.83v.05s.21.09.21.09l.34-1.19-.22-.08-.03.04Z"/>
            <path class="cls-7" d="M45.83,5.45l.05.03c.18.12.27.22.27.29,0,.06-.09.14-.24.21l-1.63.79.03-1.92c0-.29.07-.29.1-.29.07,0,.19.05.36.17l.05.03.14-.21-1.62-1.08-.14.21.05.03c.33.24.42.38.4,1l-.04,2.25-.53.79c-.19.29-.34.3-.65.09l-.16-.11-.13.21,1.66,1.11.14-.2-.12-.08c-.17-.11-.25-.21-.27-.31-.02-.09.02-.2.11-.34l.56-.84,2.01-.97c.19-.09.33-.13.46-.13.15,0,.31.05.49.15l.05.03.14-.2-1.39-.93-.14.21Z"/>
            <path class="cls-7" d="M52.44,11.35c-.53-.7-1.27-1.09-2.04-1.09-.51,0-1,.17-1.43.5-1,.76-1.09,2.21-.22,3.36.5.65,1.22,1.02,2,1.02h0c.52,0,1.02-.17,1.45-.5.97-.74,1.07-2.19.24-3.29ZM52.47,12.72c-.07.54-.4,1.06-.91,1.45-.41.31-.87.48-1.3.48-.47,0-.88-.21-1.18-.59-.66-.87-.43-2.08.53-2.82.38-.29.86-.46,1.29-.46.48,0,.9.21,1.2.61.3.4.43.86.37,1.33Z"/>
            <path class="cls-7" d="M54.74,15l-.23.11.02.05c.18.38.07.48-.33.66l-2.43,1.16c-.22.11-.35.15-.44.15-.11,0-.19-.07-.31-.29l-.03-.05-.22.11.77,1.61.23-.1-.03-.05c-.1-.22-.14-.36-.1-.45.03-.08.11-.15.29-.24l1.3-.62.52,1.09c.12.25.11.41-.23.59l-.05.03.1.21,1.2-.57-.1-.21-.05.02c-.25.1-.4.06-.49-.14l-.56-1.17,1.35-.64.54,1.12c.16.34.1.51-.24.68l-.05.03.1.21.84-.4-1.38-2.88Z"/>
          </g>
          <path class="cls-7" d="M5.54,45.76l2.47-4.56v-.02s-3.35,2.13-3.35,2.13c-.38.24-.26.57-.04.9l-.13.1-1.07-1.48.14-.1c.37.52.53.5,1.21.07l2.89-1.83c.49-.31.61-.42.32-.88l.13-.09.78,1.07-2.34,4.31,4.81-.89.76,1.04-.13.1c-.28-.33-.39-.46-.62-.27l-3.05,2.56c-.62.52-.58.57-.2,1.09l-.14.1-1.32-1.83.14-.1c.24.33.57.59.93.29l3.03-2.52h0s-5.07.97-5.07.97l-.12-.17Z"/>
          <path class="cls-7" d="M14.24,50.5l-1.22-.9,1.81-1.21-.59,2.1ZM14.13,50.9l-.47,1.64c-.02.09-.05.23-.13.35-.15.2-.33.13-.73-.16l-.18-.14-.1.13,1.94,1.43.1-.13c-.35-.26-.45-.44-.31-.92l1.41-5.01-.61-.45-.05.2-3.87,2.57c-.68.45-.81.47-1.28.14l-.1.14,1.63,1.2.1-.13-.11-.08c-.39-.28-.52-.49-.38-.68.07-.1.32-.25.47-.34l1.23-.81,1.46,1.07Z"/>
          <path class="cls-7" d="M19.76,50.78c.15.04.26.07.42.13,1.27.46,1.41,1.17,1.14,1.94-.35.99-1.09,1.16-2.01.84-.19-.07-.32-.1-.51-.2l.96-2.71ZM18.74,53.65c.13.05.23.1.42.16.22.08.36.12.57.18.15.2.36.54.59,1.04l.35.74c.48.99.74,1.44,2.21,1.89l.05-.15c-.62-.27-1.02-.75-1.33-1.41l-.42-.89c-.25-.52-.42-.85-.64-1.19.75.04,1.36-.33,1.57-.95.3-.85-.16-1.72-1.69-2.26-.54-.19-.71-.24-1.05-.34-.35-.1-.86-.25-1.06-.32l-.06.16.18.06c.48.17.57.37.39.88l-1.23,3.48c-.2.55-.42.62-.9.45l-.14-.05-.06.16,2.34.83.06-.16-.19-.07c-.46-.16-.62-.36-.44-.85l.5-1.4Z"/>
          <path class="cls-7" d="M28.69,53.46c.32-.46.17-.62-.39-.67v-.17s1.99.17,1.99.17l-.02.16c-.6,0-.87.21-1.15.6l-1.66,2.34-.11,1.31c-.04.46.11.66.65.71h.11s-.02.18-.02.18l-2.4-.2.02-.17h.16c.54.06.72-.13.75-.56l.1-1.23-1.35-2.56c-.37-.71-.56-.85-1.13-.92v-.17s2.34.2,2.34.2l-.02.16c-.68-.06-.74.11-.51.53l1.21,2.28,1.41-1.99Z"/>
          <path class="cls-7" d="M35.98,57.4l-3.87.66-.03-.16.28-.05c.4-.07.52-.22.45-.66l-.65-3.83c-.08-.46-.25-.62-.79-.53l-.12.02-.03-.16,2.55-.43.03.16-.32.06c-.56.09-.7.18-.61.72l.67,3.99c.04.23.15.3.4.26l1.27-.21c.51-.09.63-.31,1.05-1.16l.16-.03-.45,1.37Z"/>
          <path class="cls-7" d="M40.17,53.02l-1.4.59-.1-2.17,1.5,1.59ZM40.46,53.32l1.16,1.25c.07.07.17.17.23.3.09.23-.05.35-.52.54l-.21.09.06.15,2.23-.93-.06-.16c-.41.17-.61.16-.95-.2l-3.57-3.79-.7.29.15.15.21,4.64c.03.81-.02.94-.54,1.17l.06.15,1.87-.78-.06-.15-.13.06c-.44.18-.69.19-.78-.03-.05-.11-.04-.4-.05-.58l-.06-1.47,1.68-.7Z"/>
          <path class="cls-7" d="M49.95,49.92l-6.53-.77,2.4,2.9c.4.49.59.5,1.17.02l.1.13-1.57,1.3-.1-.13.03-.02c.42-.35.44-.6.18-.91l-2.75-3.33c-.25.02-.47.11-.71.3l-.11-.13,1.06-.88,5.93.69-2.22-2.69c-.34-.41-.52-.38-1.08.05l-.11-.13,1.58-1.31.11.13c-.51.42-.54.6-.33.86l3.12,3.77-.18.15Z"/>
          <path class="cls-7" d="M48.66,43.16c.05-.09.16-.31.35-.61.67-1.03,1.26-1.39,1.82-1.51.72-.15,1.42.08,1.97.43.76.49,1.11,1.2,1.19,1.64.16.75.04,1.26-.6,2.24-.38.58-.49.54-.8.34l-3.94-2.54ZM52.07,46.24c.43.28.42.53.16.93l-.08.13.14.09,1.52-2.36c1.2-1.86.43-3.59-.68-4.31-1.22-.78-2.76-.56-4.02,1.38-.25.39-.53.84-.78,1.25-.25.41-.47.78-.63,1.07l.14.09.09-.15c.28-.43.48-.48.96-.17l3.17,2.05Z"/>
          <path class="cls-7" d="M1.29,27.11v3.76c0,.2.04.25.24.25h.36s0,.12,0,.12H.27s0-.12,0-.12h.35c.21,0,.25-.06.25-.25v-3.23c-.21.18-.57.42-.81.53l-.05-.09c.38-.25.91-.74,1.07-.96h.22Z"/>
          <path class="cls-7" d="M5.04,30.31c0,.51-.37.9-.86.9s-.86-.41-.86-.96c0-.42.22-.75.66-.99.76.34,1.05.62,1.05,1.05ZM5.33,28.04c0-.52-.52-.93-1.17-.93s-1.18.48-1.18,1.05c0,.44.28.77.88,1.04-.63.25-.94.61-.94,1.06,0,.59.55,1.06,1.26,1.06s1.28-.52,1.28-1.19c0-.5-.29-.84-.97-1.15.57-.23.84-.53.84-.95ZM4.93,28.03c0,.37-.18.67-.54.89-.84-.35-1.03-.61-1.03-.97s.35-.73.79-.73.78.34.78.81Z"/>
          <path class="cls-7" d="M53.49,27.57h1.53c.12,0,.16-.02.19-.08h.12s-.07.5-.07.5h-1.64s-.05,1.16-.05,1.16c.2-.11.43-.16.7-.16.73,0,1.33.6,1.33,1.33,0,.79-.65,1.38-1.52,1.38-.52,0-.94-.18-.94-.41,0-.11.1-.2.21-.2.35,0,.47.45.88.45.48,0,.89-.5.89-1.09s-.41-1.04-.97-1.04c-.24,0-.49.1-.68.26l-.06-.05.09-2.06Z"/>
          <path class="cls-7" d="M58.42,30.46c0,.73-.31,1.14-.76,1.14-.41,0-.88-.36-.88-1.45,0-.22.01-.31.03-.4.4-.32.69-.39.86-.39.44,0,.76.4.76,1.1ZM58.46,27.49c-1.36.38-2.17,1.33-2.17,2.53,0,1,.56,1.69,1.36,1.69.69,0,1.26-.6,1.26-1.31,0-.66-.51-1.19-1.15-1.19-.32,0-.57.1-.92.38.14-.95.68-1.58,1.69-2l-.07-.1Z"/>
        </g>
      </g>
      <g>
        <path class="cls-7" d="M83.87,13.27v.34c-1.2.02-1.63.5-1.63,1.65v4.83c0,2.22-1.41,4.6-5.29,4.6-3.42,0-5.17-1.95-5.17-4.51v-5.22c0-1.14-.32-1.32-1.54-1.34v-.34h4.6v.34h-.16c-.98,0-1.41.27-1.41,1.31v4.97c0,2.41,1.41,3.86,4.08,3.86,2.02,0,4.08-.84,4.08-3.88v-4.17c0-1.72-.27-2.02-1.75-2.09v-.34h4.2Z"/>
        <path class="cls-7" d="M98.85,24.52l-9.26-9.69v7.67c0,1.29.29,1.56,1.81,1.56v.34h-4.15v-.34h.07c1.11,0,1.47-.38,1.47-1.2v-8.8c-.41-.29-.88-.43-1.5-.45v-.34h2.81l8.42,8.78v-7.12c0-1.09-.32-1.29-1.75-1.32v-.34h4.18v.34c-1.34,0-1.63.23-1.63.93v9.98h-.46Z"/>
        <path class="cls-7" d="M108.86,24.39h-4.35v-.34c1.11-.05,1.34-.34,1.34-1.54v-7.62c0-.97-.34-1.23-1.34-1.29v-.34h4.35v.34c-1.13,0-1.52.25-1.52,1.45v7.58c0,1.06.29,1.41,1.52,1.41v.34Z"/>
        <path class="cls-7" d="M117.91,24.68l-3.88-9.67c-.45-1.13-.66-1.39-1.75-1.39v-.34h4.92v.34c-1.65.04-2.04.41-1.7,1.23l3.22,8.01,2.83-7.39c.2-.5.3-.86.3-1.11,0-.54-.45-.75-1.66-.75v-.34h4.15v.34c-.93,0-1.41.43-1.84,1.54l-3.68,9.53h-.89Z"/>
        <path class="cls-7" d="M135.52,20.37h-.34c-.14-1.27-.48-1.41-1.22-1.41h-3.02v3.81c0,.82.3.98.97.98h2.76c1.25,0,1.63-.48,2.07-2.02h.32l-.29,2.66h-9.5v-.34h.5c1.43,0,1.68-.39,1.68-1.47v-7.55c0-1-.23-1.43-1.43-1.43h-.39v-.34h8.58l.14,2.49h-.32c-.23-1.52-.68-1.84-1.32-1.84h-3.77v4.4h3.2c.64,0,.95-.3,1.04-1.34h.34v3.4Z"/>
        <path class="cls-7" d="M151.62,24.63c-1.32,0-2.47-.23-4.06-2.68-.23-.36-1.23-1.95-1.48-2.24h-2.38v2.4c0,1.56.12,1.97,1.91,1.97v.32h-5.11v-.32c1.72,0,1.72-.46,1.72-2v-7.19c0-.89-.27-1.23-1.73-1.23v-.32c1.5-.12,3.02-.2,4.54-.2,1.41,0,2.22.16,2.99.54.73.36,1.79,1.16,1.79,2.65,0,.48-.16,2.15-2.34,2.9l2.18,3.31c.82,1.25,1.4,1.7,1.99,1.79v.32ZM143.69,19.39h.71c.79,0,1.36-.02,1.99-.2,1.23-.36,1.7-1.73,1.7-2.81,0-.72-.23-1.97-1.43-2.54-.86-.41-1.98-.38-2.97-.36v5.9Z"/>
        <path class="cls-7" d="M155.25,21.67c.38,1.59,1.63,2.52,3.02,2.52,1.2,0,2.47-.7,2.47-2.11,0-2.57-5.74-3.36-5.74-6.49,0-1.48,1.36-2.59,3.18-2.59,1.5,0,1.81.45,2.43.45.14,0,.21-.04.32-.18h.29l.3,2.27h-.3c-.5-1.29-1.65-2.11-2.88-2.11s-2,.68-2,1.68c0,2.54,5.74,3.22,5.74,6.51,0,1.75-1.56,3.06-3.65,3.06-.98,0-2.24-.48-2.49-.48-.16,0-.29.09-.36.2h-.3l-.38-2.72h.34Z"/>
        <path class="cls-7" d="M169.95,24.39h-4.35v-.34c1.11-.05,1.34-.34,1.34-1.54v-7.62c0-.97-.34-1.23-1.34-1.29v-.34h4.35v.34c-1.13,0-1.52.25-1.52,1.45v7.58c0,1.06.29,1.41,1.52,1.41v.34Z"/>
        <path class="cls-7" d="M179.75,22.75c0,.97.32,1.31,1.41,1.31h.66v.34h-5.63v-.34h.66c1.09,0,1.41-.34,1.41-1.31v-8.83h-3.11c-.72,0-1.04.41-1.3,1.99h-.32l.29-2.9h.34c.02.11.09.18.2.21.11.04.23.05.36.05h8.6c.25,0,.52-.05.55-.27h.34l.29,2.9h-.32c-.27-1.57-.59-1.99-1.31-1.99h-3.11v8.83Z"/>
        <path class="cls-7" d="M196.87,14.9c.57-.98.23-1.29-.91-1.29v-.34h4.04v.34c-1.22.09-1.73.57-2.23,1.41l-2.97,5.03v2.68c0,.95.34,1.32,1.43,1.32h.23v.34h-4.92v-.34h.34c1.11,0,1.43-.41,1.43-1.29v-2.52l-3.18-4.97c-.88-1.38-1.29-1.63-2.45-1.66v-.34h4.76v.34c-1.39,0-1.48.34-.95,1.16l2.86,4.42,2.52-4.29Z"/>
        <path class="cls-7" d="M82.45,47.86h-11.99v-.51h.88c1.23,0,1.69-.4,1.69-1.77v-11.88c0-1.42-.43-2.01-2.12-2.01h-.38v-.51h7.91v.51h-.99c-1.74,0-2.2.19-2.2,1.85v12.36c0,.72.29.99,1.07.99h3.94c1.58,0,2.07-.62,3.75-2.95h.48l-2.06,3.92Z"/>
        <path class="cls-7" d="M92.45,47.86h-6.52v-.51c1.66-.08,2.01-.51,2.01-2.31v-11.42c0-1.45-.51-1.85-2.01-1.93v-.51h6.52v.51c-1.69,0-2.28.38-2.28,2.17v11.37c0,1.58.43,2.12,2.28,2.12v.51Z"/>
        <path class="cls-7" d="M96.9,34.02c0-1.53-.19-2.33-2.07-2.33h-.94v-.51c.75-.03,2.6-.13,3.38-.16,1.48-.05,3.51-.08,4.02-.08,2.36,0,4.42.35,5.39,1.05,1.1.78,1.64,1.69,1.64,2.98,0,1.53-1.26,2.95-3.06,3.27v.05c2.52.75,4,2.39,4,4.48s-1.47,5.1-5.79,5.1h-9.82v-.51h.62c2.2,0,2.63-.51,2.63-2.2v-11.13ZM99.13,38.15h2.92c2.57,0,3.86-1.02,3.86-3.11,0-1.88-1.13-3.59-4.42-3.59-.59,0-1.69.05-2.36.08v6.62ZM99.13,44.37c0,2.04.8,2.76,3.06,2.76,3.54,0,4.56-2.2,4.56-4.29s-1.58-4.18-4.72-4.18h-2.9v5.71Z"/>
        <path class="cls-7" d="M127.15,48.2c-1.98,0-3.7-.35-6.09-4.02-.35-.54-1.85-2.92-2.23-3.35h-3.57v3.59c0,2.33.19,2.95,2.87,2.95v.48h-7.67v-.48c2.57,0,2.57-.7,2.57-3v-10.78c0-1.34-.4-1.85-2.6-1.85v-.48c2.25-.19,4.53-.29,6.81-.29,2.12,0,3.33.24,4.48.8,1.1.54,2.68,1.74,2.68,3.97,0,.72-.24,3.22-3.51,4.34l3.27,4.96c1.23,1.88,2.09,2.55,2.98,2.68v.48ZM115.27,40.35h1.07c1.18,0,2.04-.03,2.98-.29,1.85-.54,2.55-2.6,2.55-4.21,0-1.07-.35-2.95-2.15-3.81-1.29-.62-2.98-.56-4.45-.54v8.85Z"/>
        <path class="cls-7" d="M133.13,40.45l-1.56,4.21c-.19.51-.54,1.31-.54,1.69,0,.72.7.99,2.17.99h.43v.51h-6.2v-.51c1.74-.03,2.04-.32,2.9-2.65l4.88-13.33-.24-.59h2.33l5.6,14.88c.54,1.42,1.1,1.69,2.44,1.69v.51h-7.37v-.51h.7c1.53,0,2.09-.16,2.09-.91,0-.43-.19-.83-.3-1.1l-1.8-4.88h-5.55ZM135.86,33.03l-2.28,6.25h4.64l-2.36-6.25Z"/>
        <path class="cls-7" d="M162.62,48.2c-1.98,0-3.7-.35-6.09-4.02-.35-.54-1.85-2.92-2.23-3.35h-3.57v3.59c0,2.33.19,2.95,2.87,2.95v.48h-7.67v-.48c2.57,0,2.57-.7,2.57-3v-10.78c0-1.34-.4-1.85-2.6-1.85v-.48c2.25-.19,4.53-.29,6.81-.29,2.12,0,3.33.24,4.48.8,1.1.54,2.68,1.74,2.68,3.97,0,.72-.24,3.22-3.51,4.34l3.27,4.96c1.23,1.88,2.09,2.55,2.98,2.68v.48ZM150.74,40.35h1.07c1.18,0,2.04-.03,2.98-.29,1.85-.54,2.55-2.6,2.55-4.21,0-1.07-.35-2.95-2.15-3.81-1.29-.62-2.98-.56-4.45-.54v8.85Z"/>
        <path class="cls-7" d="M170.53,47.86h-6.52v-.51c1.66-.08,2.01-.51,2.01-2.31v-11.42c0-1.45-.51-1.85-2.01-1.93v-.51h6.52v.51c-1.69,0-2.28.38-2.28,2.17v11.37c0,1.58.43,2.12,2.28,2.12v.51Z"/>
        <path class="cls-7" d="M184.18,41.82h-.51c-.21-1.9-.72-2.12-1.82-2.12h-4.53v5.71c0,1.23.46,1.47,1.45,1.47h4.13c1.88,0,2.44-.72,3.11-3.03h.48l-.43,4h-14.24v-.51h.75c2.15,0,2.52-.59,2.52-2.2v-11.32c0-1.5-.35-2.15-2.15-2.15h-.59v-.51h12.87l.21,3.73h-.48c-.35-2.28-1.02-2.76-1.98-2.76h-5.66v6.6h4.8c.97,0,1.42-.46,1.55-2.01h.51v5.1Z"/>
        <path class="cls-7" d="M188.69,43.78c.56,2.39,2.44,3.78,4.53,3.78,1.8,0,3.7-1.05,3.7-3.16,0-3.86-8.61-5.04-8.61-9.73,0-2.23,2.04-3.89,4.77-3.89,2.25,0,2.71.67,3.65.67.21,0,.32-.05.48-.27h.43l.45,3.41h-.45c-.75-1.93-2.47-3.16-4.32-3.16s-3,1.02-3,2.52c0,3.81,8.61,4.83,8.61,9.76,0,2.63-2.33,4.59-5.47,4.59-1.47,0-3.35-.72-3.73-.72-.24,0-.43.13-.54.3h-.45l-.56-4.08h.51Z"/>
      </g>
    </g>
  </g>
</svg>