<?xml version="1.0" encoding="utf-8"?>
<!-- Generator: Adobe Illustrator 19.0.0, SVG Export Plug-In . SVG Version: 6.00 Build 0)  -->
<svg version="1.1" id="Layer_1" xmlns="http://www.w3.org/2000/svg" xmlns:xlink="http://www.w3.org/1999/xlink" x="0px" y="0px"
	 viewBox="0 0 500 500" style="enable-background:new 0 0 500 500;" xml:space="preserve">
<style type="text/css">
	.st0{fill:#FFFFFF;}
	.st1{fill:#FFD520;}
	.st2{fill:#C8102E;}
</style>
<g id="XMLID_1_">
	<path id="XMLID_3_" d="M179,81.8c-21.7,9.2-41.3,22.4-58,39.1c-16.8,16.8-29.9,36.3-39.1,58c-9.5,22.5-14.3,46.4-14.3,71
		c0,24.6,4.8,48.5,14.3,71c9.2,21.7,22.3,41.3,39.1,58c16.8,16.8,36.3,29.9,58,39.1c22.5,9.5,46.4,14.3,71,14.3
		c24.6,0,48.5-4.8,71-14.3c21.7-9.2,41.3-22.4,58-39.1c16.8-16.8,29.9-36.3,39.1-58c9.5-22.5,14.3-46.4,14.3-71s-4.8-48.5-14.3-71
		c-9.2-21.7-22.3-41.2-39.1-58c-16.8-16.8-36.3-29.9-58-39.1c-22.5-9.5-46.4-14.3-71-14.3C225.4,67.5,201.5,72.3,179,81.8"/>
	<path id="XMLID_4_" class="st0" d="M179.4,417.2c-21.6-9.1-41-22.2-57.7-38.9c-16.7-16.7-29.7-36.1-38.9-57.7
		c-9.5-22.4-14.3-46.1-14.3-70.6c0-24.5,4.8-48.2,14.3-70.6c9.1-21.6,22.2-41,38.9-57.7c16.7-16.7,36.1-29.7,57.7-38.9
		c22.4-9.5,46.1-14.3,70.6-14.3c24.5,0,48.3,4.8,70.6,14.3c21.6,9.1,41,22.2,57.7,38.9c16.7,16.7,29.7,36.1,38.9,57.7
		c9.5,22.4,14.3,46.1,14.3,70.6s-4.8,48.2-14.3,70.6c-9.1,21.6-22.2,41-38.9,57.7c-16.7,16.7-36.1,29.7-57.7,38.9
		c-22.4,9.5-46.1,14.3-70.6,14.3S201.8,426.6,179.4,417.2"/>
	<path id="XMLID_5_" d="M180.5,85.4c-21.3,9-40.4,21.9-56.8,38.3c-16.4,16.4-29.3,35.5-38.3,56.8c-9.3,22-14,45.4-14,69.5
		s4.7,47.5,14,69.5c9,21.3,21.9,40.4,38.3,56.8c16.4,16.4,35.5,29.3,56.8,38.3c22,9.3,45.4,14,69.5,14c24.1,0,47.5-4.7,69.5-14
		c21.3-9,40.4-21.9,56.8-38.3c16.4-16.4,29.3-35.5,38.3-56.8c9.3-22,14-45.4,14-69.5s-4.7-47.5-14-69.5c-9-21.3-21.9-40.4-38.3-56.8
		c-16.4-16.4-35.5-29.3-56.8-38.3c-22-9.3-45.4-14-69.5-14C225.9,71.4,202.5,76.1,180.5,85.4"/>
	<path id="XMLID_6_" class="st0" d="M180.7,414.1c-21.2-9-40.3-21.8-56.6-38.2c-16.4-16.4-29.2-35.4-38.2-56.6
		c-9.3-22-14-45.3-14-69.3c0-24,4.7-47.4,14-69.3c9-21.2,21.8-40.3,38.2-56.6c16.4-16.4,35.4-29.2,56.6-38.2c22-9.3,45.3-14,69.3-14
		s47.4,4.7,69.3,14c21.2,9,40.3,21.8,56.6,38.2c16.4,16.4,29.2,35.4,38.2,56.6c9.3,22,14,45.3,14,69.3c0,24-4.7,47.4-14,69.3
		c-9,21.2-21.8,40.3-38.2,56.6c-16.4,16.4-35.4,29.2-56.6,38.2c-22,9.3-45.3,14-69.3,14C226,428.1,202.6,423.4,180.7,414.1"/>
	<path id="XMLID_7_" d="M200.4,132.7c-15.2,6.4-28.8,15.6-40.5,27.3c-11.7,11.7-20.9,25.3-27.3,40.5c-6.6,15.7-10,32.4-10,49.6
		c0,17.2,3.4,33.9,10,49.6c6.4,15.2,15.6,28.8,27.3,40.5c11.7,11.7,25.3,20.9,40.5,27.3c15.7,6.6,32.4,10,49.6,10
		c17.2,0,33.9-3.4,49.6-10c15.2-6.4,28.8-15.6,40.5-27.3c11.7-11.7,20.9-25.3,27.3-40.5c6.6-15.7,10-32.4,10-49.6
		c0-17.2-3.4-33.9-10-49.6c-6.4-15.2-15.6-28.8-27.3-40.5c-11.7-11.7-25.3-20.9-40.5-27.3c-15.7-6.6-32.4-10-49.6-10
		C232.8,122.7,216.1,126,200.4,132.7"/>
	<path id="XMLID_8_" class="st0" d="M200.6,366.8c-15.1-6.4-28.7-15.5-40.3-27.2c-11.6-11.6-20.8-25.2-27.2-40.3
		c-6.6-15.6-10-32.2-10-49.3c0-17.1,3.3-33.7,10-49.4c6.4-15.1,15.5-28.7,27.2-40.3c11.6-11.6,25.2-20.8,40.3-27.2
		c15.6-6.6,32.2-10,49.4-10c17.1,0,33.7,3.3,49.4,10c15.1,6.4,28.7,15.5,40.3,27.2c11.7,11.6,20.8,25.2,27.2,40.3
		c6.6,15.6,10,32.2,10,49.4c0,17.1-3.3,33.7-10,49.3c-6.4,15.1-15.5,28.7-27.2,40.3c-11.6,11.6-25.2,20.8-40.3,27.2
		c-15.6,6.6-32.2,10-49.4,10C232.9,376.8,216.3,373.5,200.6,366.8"/>
	<path id="XMLID_9_" d="M201.6,135.3c-14.8,6.3-28.1,15.2-39.6,26.7c-11.4,11.4-20.4,24.7-26.7,39.6c-6.5,15.4-9.8,31.6-9.8,48.4
		c0,16.8,3.3,33.1,9.8,48.4c6.3,14.8,15.2,28.1,26.7,39.6c11.4,11.4,24.7,20.4,39.6,26.7c15.3,6.5,31.6,9.8,48.4,9.8
		c16.8,0,33.1-3.3,48.4-9.8c14.8-6.3,28.1-15.2,39.6-26.7c11.4-11.4,20.4-24.7,26.7-39.6c6.5-15.3,9.8-31.6,9.8-48.4
		c0-16.8-3.3-33.1-9.8-48.4c-6.3-14.8-15.2-28.1-26.7-39.6c-11.4-11.4-24.7-20.4-39.6-26.7c-15.4-6.5-31.6-9.8-48.4-9.8
		C233.2,125.6,216.9,128.9,201.6,135.3"/>
	<path id="XMLID_10_" class="st0" d="M202,363.7c-14.7-6.2-27.9-15.1-39.2-26.4c-11.3-11.3-20.2-24.5-26.4-39.2
		c-6.4-15.2-9.7-31.4-9.7-48c0-16.7,3.3-32.8,9.7-48c6.2-14.7,15.1-27.9,26.4-39.2c11.3-11.3,24.5-20.2,39.2-26.4
		c15.2-6.4,31.4-9.7,48-9.7c16.7,0,32.8,3.3,48,9.7c14.7,6.2,27.9,15.1,39.2,26.4c11.3,11.3,20.2,24.5,26.4,39.2
		c6.4,15.2,9.7,31.4,9.7,48s-3.3,32.8-9.7,48c-6.2,14.7-15.1,27.9-26.4,39.2c-11.3,11.3-24.5,20.2-39.2,26.4
		c-15.2,6.4-31.4,9.7-48,9.7S217.2,370.1,202,363.7"/>
	<path id="XMLID_13_" class="st1" d="M249.8,133.7c-62.4,0-114.9,50.9-116.1,114.1l0,0.1c0.1,0.2,0.6,1.3,3.1,2.9
		c2.5,1.5,6.1,3.2,10.9,4.4c5.9,1.5,12.1,2.8,17.9,3.7l0.1,0c17.6,3,31.9,4.2,52.9,5.1c9.9,0.4,19.9,0.8,29.7,0.8
		c0-5.9,0-39.7,0.2-72.3c0-4.2,0.1-8.6,0.1-13C248.9,158.2,249.3,136.5,249.8,133.7 M366.3,247.4c0,0.5-2.1,2.3-4.3,3.6l-0.2,0.1
		c-3,1.6-7.3,3.2-12.6,4.6c-5.4,1.4-12.1,2.7-19.5,3.9c-7.4,1.1-15.6,2-24.4,2.8c-11.3,1-18.4,1.4-27.5,1.9
		c-9.6,0.4-19.5,0.6-29.7,0.6c0,1.3,0,2.6,0,3.8c0,9.1,0,17.8,0.1,25.9c0.2,44.7,0.3,44.6,1.6,71.8c64.2,0,116.3-52.1,116.3-116.3
		C366.3,250,366.3,248.3,366.3,247.4"/>
	<path id="XMLID_22_" class="st2" d="M249.8,133.7L249.8,133.7c2.7,4,8,6.3,9.2,6.6c-0.3,1.4-0.1,4.2,4.8,7.8c0.8,0.6,1.5,1,2.2,1.3
		c7.6,4,9.2,0.9,9.6-0.4l0.1-0.1c2.3,1.7,6.8,5.3,11.8,10.9c2.9,3.4,5.6,6.4,7.6,9.4c-4.7,0.6-10.9,1.1-17,1.6
		c-0.3-7.4-5.7-11.1-9.1-12.4c-7.4-2.7-9.8,5.9-6.6,12c-5.8-3.2-12.7-0.3-13.7,8.9c23-0.1,38.8-1.2,56.3-3.6
		c-14.8-22.6-26.5-30.8-41.5-36.8C260.5,137.8,250.3,133.8,249.8,133.7L249.8,133.7z M305,175.8L305,175.8L305,175.8L305,175.8z
		 M254,133.8c5.9,0.5,9.8,2.1,10.8,2.4c0.7,0.3,1.3,0.7,1.7,1l0.1,0c1.2,0.1,2.5,0.4,4.2,0.8c1.8,0.5,4.8,1.6,7.5,2.9
		c2.7,1.3,6.6,4.1,6.7,5.7c-0.6,0.4-0.8,0.5-2.6,0c6.9,4.9,16.8,14.2,22.6,21c4-0.8,10-1.6,12.7-2.5c-0.2,0.2-9.1-6.5-11.1-10.3
		c-0.1-0.1-0.1-0.5-0.1-0.8c0.1-0.3,0.3-0.5,0.3-0.5s0.1-0.3,0.6-0.5c1.2-0.7,4.7-1,14.4,5.7c-20.2-15.9-41.9-22.4-60.3-24.2
		C258.8,134,254,133.8,254,133.8L254,133.8z M330.2,165.9c0,4.4-15.1,8-21.8,9.2c-1,0.2-2.1,0.4-3.2,0.5l-0.1,0l-0.1,0l-0.1,0.1h0
		c18.6,30.5,23.4,55.6,24.8,83.8v0c8.8-2.8,10.3-15.3,5.7-23.9c5.8,2,8.6-3.6,8.4-10c-0.5-10.8-9.6-22-15.5-15.9
		c-3.4-9.4-8.1-19-13-27.2c0.5-0.1,1.4-0.3,1.9-0.4c4.2-0.8,9.2-3,12.2-4c1.2,2.3,3.1,7.7,9.1,10.4c0.2,0.1,0.4,0.1,0.5,0.2
		c1.7,0.7,3.3,0.7,3.5-1.8c0.1-0.8-0.3-2.5-0.8-4c-0.5-1.3-0.8-2.1-1.3-3C336.1,171.8,330.2,165.9,330.2,165.9L330.2,165.9z
		 M329.8,259.5c-0.6,0-1.4,0.1-1.9,0c-6.1-0.8-11.1-11-8.5-21.5c-8.5,5.9-18.1-6.2-16.7-17.4c0.8-5.9,4.6-11.2,11.4-8.8
		c-2.7-9.5-6.2-18.4-10.2-26.7c-6,0.8-12.6,1.4-19.6,1.9c6.2,9.4,0.1,18.1-8.5,16.7c-6.3-1-12.2-7.6-10.5-15.5
		c-5.1,3.5-15.6,2.1-16.5-9c-0.3,23.7-0.4,53.9-0.4,85.4C279.2,265.1,315.4,261.8,329.8,259.5L329.8,259.5z M165.7,259
		c9,3.1,11.5,16.5,9.2,23.9c8.6-3.3,19.5,11.6,15.7,21.6c-1.8,4.6-6.3,5.9-11.1,3.1c2.6,8.7,5.9,16.7,9.9,23.8
		c6.1,0.8,13,1.6,20.5,2.1c-6-7.4-1.2-13.5,6.9-13.1c6.9,0.4,16.1,6.1,14.1,14c6.2-2.8,16.7-0.5,18,7.6c-0.3-17.4-0.5-43.1-0.6-73.3
		c0-1.3,0-2.5,0-3.8c-9.8,0-19.8-0.4-29.7-0.8C197.6,263.2,183.3,262,165.7,259L165.7,259z M165.7,259c-8.9,0-9.9,12.8-6.2,21.3
		c-4.9-3.7-6.8-0.3-7.4,1.4c-2.9,8.1,6.3,27.3,13.6,23.6c3.1,8.8,7.1,16.9,11.9,24.1c-5.1-1-9.3-2.2-12.5-3.4
		c-0.1-0.1-8.2-14.4-13.5-16.2c-0.5-0.2-1.3-0.1-1.3-0.2c0.3,0.5,3.3,5.7,6.9,10.4c4.9,6.4,10.5,12.1,10.6,12.1c0.1,0,0.4,0,1,0.4
		c3.8,2,9.5,3.5,19.5,5.3C169.7,311.6,165.9,287.2,165.7,259L165.7,259z M188.2,337.8c15,19.6,29.9,24.5,38.5,26.2
		c1.9,0.4,2.7,0.6,6.1,1.1l0.9,0.1c-4.4-1.6-8.7-3.7-13.2-5.2c-3.5-1.2-4.6-1.3-5.3-1c-5.9-3.4-11.3-8.1-16.2-13.7
		c5.1,0.7,10.9,1.3,17.2,1.8c0.5,4.1,6.5,8.2,11.7,9.2c6.6,1.2,9.8-3.1,6.1-8c8,3.3,13.6-0.6,14.6-4.6c0.1-0.5,0.1-1.1,0.2-1.6
		C223.8,341.8,206.2,340.6,188.2,337.8L188.2,337.8z"/>
	<path id="XMLID_70_" d="M261.5,85.9c-3.6,0-6.4,2.1-6.7,5.2c-0.5,6.8,11.9,9.5,11.4,15.2c-0.2,3.1-3.1,4.4-5.8,4.2
		c-3-0.2-5.6-2.5-6.2-6l-0.7-0.1l0.4,6l0.7,0.1c0.2-0.2,0.5-0.4,0.8-0.4c0.5,0,3.2,1.3,5.3,1.5c4.6,0.4,8.2-2.2,8.5-6.1
		c0.6-7.2-11.9-9.6-11.4-15.2c0.2-2.2,2.1-3.5,4.7-3.3c2.7,0.2,5,2.2,5.9,5.1l0.7,0.1l-0.3-5l-0.6-0.1c-0.3,0.3-0.4,0.4-0.7,0.3
		c-1.4-0.1-2-1.1-5.2-1.4C262,85.9,261.8,85.9,261.5,85.9L261.5,85.9z M227.9,87.3c-0.8,0-1.6,0.1-2.5,0.2c-2.5,0.3-3.3,0.4-4.9,0.7
		c-1.6,0.3-3.9,0.7-4.9,0.8l0.1,0.7l0.9-0.1c2.3-0.3,3,0.4,3.3,2.8l1.9,16.4c0.3,2.6-0.4,3.3-2.7,3.6l-0.7,0.1l0.1,0.8l11-1.3
		l-0.1-0.7l-0.9,0.1c-2.2,0.3-3.2-0.2-3.5-2.5l-0.8-6.6c0.6,0,1.1-0.1,2-0.2c1-0.1,1.7-0.2,2.6-0.4c1,0.5,2.5,1.5,4.4,3l2.9,2.3
		c3.9,3.1,5.8,4.3,12.6,3.2l-0.1-0.7c-3,0.2-5.6-1-8.1-3l-3.4-2.7c-2-1.6-3.3-2.6-4.9-3.5c3.1-1.3,4.8-4,4.4-6.9
		C236.2,89.7,233.4,87.3,227.9,87.3L227.9,87.3z M226.7,88.2c4.4,0.1,5.9,2.5,6.3,5.6c0.6,4.7-2.1,6.8-6.4,7.4
		c-0.9,0.1-1.5,0.2-2.4,0.2l-1.5-12.8c0.7-0.2,1.2-0.2,1.9-0.3C225.4,88.2,226,88.2,226.7,88.2L226.7,88.2z M280.4,88.8l-0.2,0.7
		c2.1,0.6,2.7,1.3,2.3,3.4l-3.6,16.3c-0.6,2.6-1.2,3.1-3.6,2.7l-0.2,0.7l9.3,2l0.2-0.7c-2.6-0.6-3.1-1.5-2.6-3.7l3.5-16.2
		c0.6-2.6,1.5-2.9,3.9-2.4l0.1-0.7L280.4,88.8L280.4,88.8z M204.2,92.4l-17.8,6.1l0.2,0.7l0.8-0.3c2.5-0.9,3.3-0.1,4,1.9l5.4,15.6
		c0.8,2.2,0.5,3.2-2.4,4.2l-1,0.4l0.2,0.7l19.7-6.8l-1.3-5.7l-0.7,0.2c0.2,3.5-0.3,4.8-2.9,5.7l-5.7,2c-1.4,0.5-2.1,0.4-2.7-1.4
		l-2.7-7.9l6.3-2.2c1.5-0.5,2.3-0.5,3.5,2.1l0.7-0.2l-2.4-7l-0.7,0.2c0.6,2.2,0.1,3.1-1.2,3.5l-6.6,2.3l-3.1-9.1l7.8-2.7
		c1.3-0.5,2.5-0.1,4.1,2.9l0.7-0.2L204.2,92.4L204.2,92.4z M300,92.8l-2.9,5.7l0.7,0.3c1.8-3,2.8-3.6,4.3-3l6.3,2.5l-7.1,18
		c-0.8,2-1.7,2.4-3.9,1.5l-1.4-0.5l-0.3,0.7l11.5,4.6l0.3-0.7l-1.4-0.5c-2.2-0.9-2.6-1.8-1.8-3.8l7.1-18l6.3,2.5
		c1.5,0.6,1.8,1.7,1.1,5.1l0.7,0.3l1.8-6.1l-0.7-0.3c-0.3,0.4-0.8,0.3-1.4,0.1l-17.5-6.9c-0.3-0.1-0.5-0.2-0.7-0.4
		c-0.2-0.2-0.3-0.4-0.2-0.6L300,92.8L300,92.8z M178.5,101.9l-7.8,4.6l0.4,0.6c2.3-1.4,3.4-1.4,4-0.4c0.3,0.5,0.5,1.3,0.7,2.4
		l2.8,17.1l-15-11.6c-1.6-1.2-1.2-2.3,1.8-4.2l-0.4-0.6l-9.3,5.5l0.4,0.6c2.1-1.2,2.8-0.9,4.9,0.7l18.1,14l1.7-1l-3.6-22.1
		c-0.4-2.6,0-3.9,1.8-5L178.5,101.9L178.5,101.9z M329.4,105.9l-0.4,0.6c2.1,1.5,2.5,2.4,2.4,6l-0.3,12.9l-3.1,4.6
		c-1.1,1.6-2.2,2-4.2,0.6l-0.6-0.4l-0.4,0.6l9,6l0.4-0.6l-0.4-0.3c-2-1.3-2.2-2.4-1-4.2l3.3-4.9l11.5-5.5c1.9-0.9,3.5-1.2,5.8,0.2
		l0.4-0.6l-7.4-4.9l-0.4,0.6c2.1,1.4,2.3,2.4,0.1,3.5l-9.8,4.8l0.2-11.5c0-2.2,0.6-2.7,3.1-1l0.4-0.6L329.4,105.9L329.4,105.9z
		 M149,120.8l-7.3,6.1l0.5,0.6c1.8-1.3,2.7-1.3,4.1,0.3l10.7,12.8c1.7,2,1.7,2.8-0.1,4.5l0.5,0.6l7.3-6.1l-0.5-0.6
		c-2.1,1.7-3.1,1.5-4.5-0.3L149,125.9c-1.7-2-1.4-3,0.5-4.6L149,120.8L149,120.8z M134.4,132.8l-5.9,7l0.6,0.5
		c2.1-2.3,2.9-2.6,4.7-1.1l11.9,10l-26.6,1.7l-4,4.7l0.6,0.5c0.9-1,1.8-1.6,2.9-1.9l14.7,12.4c1.4,1.2,1.5,2.3-0.1,4.1l-0.1,0.1
		l0.6,0.5l5.9-7L139,164c-2.1,2.5-3,2.6-5.2,0.8L121,154l29.3-1.8l0.7-0.8l-16.7-14.1c-1.2-1-1.2-1.8,0.7-4L134.4,132.8L134.4,132.8
		z M249.7,133.7L249.7,133.7L249.7,133.7c-11.6,6.6-21.8,35.1-27.4,71.2l0,0.1c8.4,10.6,14.5,17.4,25.9,29.4c0-1.4,0-8.7,0.1-18.8
		c0-10.2,0.1-23.3,0.3-36.1C248.9,157.7,249.3,137.1,249.7,133.7L249.7,133.7c-9.4,0-17.7,1-27.2,3.3c-13.5,3.2-18.4,7.7-26.9,13.9
		C211.7,141.2,230.1,134.5,249.7,133.7L249.7,133.7z M222.4,205L222.4,205L222.4,205c-8.5-11.7-11.2-17.2-14.5-26.9
		c-7.3,15.4-12.8,33.9-15.8,53.7c7.1,10.6,11.5,16.8,25.7,32.2C217.9,243.2,219.5,223.1,222.4,205L222.4,205z M207.8,178
		c10.8-22.9,25.6-40,41.9-44.3c-12.5,0.7-18.8,3.4-25.3,6.1c7.9-2.9,16.7-5.3,25.2-6c-14.9,2.3-28.9,10.7-41,21.8
		C205.5,163.8,205.7,168.6,207.8,178L207.8,178L207.8,178z M224.5,139.7c-17,6.6-32.2,18-44.6,32.2c-3.4,10.6-3.4,16.5-1.7,27.8
		c7.6-17.6,18.1-32.9,30.6-44.3C212.6,148.8,215,144.8,224.5,139.7L224.5,139.7z M369.3,144.5c-2.6,0.1-5.2,1-7.5,2.8
		c-5.8,4.4-5.8,12.6-1.2,18.7c4.6,6,12.9,7.7,19.2,2.9c5.6-4.3,5.8-12.4,1.3-18.3C377.9,146.4,373.6,144.3,369.3,144.5L369.3,144.5z
		 M372.2,146.8c2.7-0.1,5.4,0.8,7.5,3.6c3.9,5.1,2.6,11.9-3.2,16.4c-4.4,3.4-10.8,4.4-14.6-0.7c-3.8-5-2.7-12.1,3.1-16.5
		C366.8,148,369.5,146.9,372.2,146.8L372.2,146.8z M195.6,150.9c-34.1,20.4-57.5,57.8-58.7,99.9c2.5,1.5,6,3.2,10.9,4.4
		c0.9-31.7,13.1-61.3,32.2-83.2C183.9,162.3,187.5,158,195.6,150.9L195.6,150.9z M109.8,163.8l-4.1,8.3l0.7,0.3
		c1.6-2.8,2.4-3.1,5.8-1.4l8.2,4.1c6,3,5.6,7.8,3.6,11.8c-2.6,5.2-6.8,6.6-11.5,4.2l-9.8-4.8c-2-1-2.1-2.1-1.2-4l0.2-0.3l-0.7-0.3
		l-4.5,9l0.7,0.3c1.2-2.4,1.9-2.8,4.1-1.7l10.2,5.1c5,2.5,10.6,0.9,13.9-5.8c3.8-7.6,0.5-12.7-3.9-14.9l-9.5-4.7
		c-2.2-1.1-2.8-2.4-1.6-4.8L109.8,163.8L109.8,163.8z M394.3,171.6l-0.7,0.3c1.1,2.5,0.2,3.2-2.1,4.2l-13.9,6.6
		c-2.9,1.4-3.5,1.2-4.7-0.9l-0.7,0.3l4.1,8.6l0.7-0.3c-1.3-2.7-0.7-3.4,1.3-4.4l7.7-3.7l3.1,6.5c0.8,1.7,0.5,2.7-1.5,3.8l0.3,0.6
		l6.2-3l-0.3-0.6c-1.6,0.6-2.6,0.3-3.2-1l-3.3-7l8.3-4l3.2,6.7c1,2.2,0.5,3.3-1.5,4.3l0.3,0.6l4.2-2L394.3,171.6L394.3,171.6z
		 M178.2,199.7c-7.6,17.9-12.1,38.1-12.5,59.2c7.2,1.3,15.3,2.4,23.8,3.2c0.2-10.3,1-20.5,2.5-30.4
		C183.7,217.8,181.2,211.5,178.2,199.7L178.2,199.7z M88.2,240.3c-0.9,1.3-3.9,4-6.1,5.5l0.3,0.5c1.4-0.6,3.4-2,4.6-3v18.5
		c0,1.1-0.2,1.4-1.4,1.4h-2v0.7h9.3v-0.7h-2.1c-1.2,0-1.4-0.3-1.4-1.4v-21.5L88.2,240.3L88.2,240.3z M105.8,240.3
		c-3.7,0-6.7,2.7-6.7,6c0,2.5,1.6,4.4,5,6c-3.6,1.4-5.4,3.5-5.4,6.1c0,3.4,3.2,6.1,7.2,6.1c4.1,0,7.3-3,7.3-6.8
		c0-2.8-1.7-4.8-5.6-6.5c3.3-1.3,4.8-3,4.8-5.4C112.5,242.6,109.5,240.3,105.8,240.3L105.8,240.3z M105.8,240.9c2.6,0,4.5,2,4.5,4.6
		c0,2.1-1,3.8-3.1,5.1c-4.8-2-5.9-3.5-5.9-5.5C101.3,242.8,103.2,240.9,105.8,240.9L105.8,240.9z M397.1,242.4
		c-0.2,0.3-0.4,0.5-1.1,0.5h-8.8l-0.5,11.8l0.4,0.3c1.1-0.9,2.5-1.5,3.9-1.5c3.2,0,5.5,2.5,5.5,5.9c0,3.4-2.3,6.2-5.1,6.2
		c-2.3,0-3-2.6-5-2.6c-0.7,0-1.2,0.5-1.2,1.2c0,1.3,2.4,2.3,5.4,2.3c4.9,0,8.7-3.4,8.7-7.9c0-4.2-3.4-7.6-7.6-7.6
		c-1.5,0-2.8,0.3-4,0.9l0.3-6.6h9.3l0.4-2.9L397.1,242.4L397.1,242.4z M415.7,242.4c-7.7,2.2-12.4,7.6-12.4,14.5
		c0,5.7,3.2,9.6,7.7,9.6c4,0,7.2-3.4,7.2-7.5c0-3.8-2.9-6.8-6.6-6.8c-1.8,0-3.3,0.6-5.3,2.1c0.8-5.4,3.9-9,9.7-11.4L415.7,242.4
		L415.7,242.4z M366.3,247.4c-0.6,1.1-2.5,2.6-4.4,3.7c0,1.3,0.1,2.6,0.1,3.9c0.1,39.5-18.4,72.6-47.7,91.9
		c-0.8,0.6-2.4,1.6-4.2,2.7l-0.4,0.3c14.8-9.1,33.4-24.4,45.3-49.8C367.7,275.1,366.3,247.4,366.3,247.4L366.3,247.4z M310,349.6
		l0.4-0.3c1.3-0.8,2.5-1.6,3.7-2.4l0.2-0.2c4.6-3.7,6.1-6.5,8-10.8l0,0c-3.8,4.3-25.2,21.8-40.9,26c2.5-0.7,4.8-1.3,7.3-2.3
		c8.8-3.6,10.1-3.7,16.7-7.4C306.5,351.7,308.3,350.6,310,349.6L310,349.6z M322.4,336c16.8-19,27-45.8,27-76.5c0-1.3,0-2.6-0.1-3.8
		c-5.4,1.4-12.1,2.7-19.5,3.8c0.1,1.3,0.1,2.6,0.1,3.9c0,19.9-3.4,38-9.5,53.3C323.9,325.6,324,329.3,322.4,336L322.4,336z
		 M104.8,252.6c4.3,2,6,3.5,6,6c0,2.9-2.1,5.1-4.9,5.1c-2.8,0-4.9-2.3-4.9-5.5C101.1,255.8,102.3,253.9,104.8,252.6z M411.1,253.1
		c2.5,0,4.3,2.3,4.3,6.3c0,4.2-1.8,6.5-4.4,6.5c-2.3,0-5-2-5-8.3c0-1.3,0.1-1.8,0.2-2.3C408.5,253.5,410.2,253.1,411.1,253.1
		L411.1,253.1z M305.4,262.3c-11.3,1-18.4,1.4-27.5,1.9v0c15.9,16.6,19.3,20.5,26.1,28.2c0.9-8.2,1.4-17,1.4-26.1
		C305.4,265,305.4,263.6,305.4,262.3L305.4,262.3z M277.9,264.2c-11.8,0.5-19.5,0.6-29.7,0.6c0,1.3,0,2.6,0,3.9
		c0,9.1,0,17.7,0.1,25.9c18.6,17.7,18.6,17.7,26.4,25.4c2.1-14.8,3.2-32.4,3.2-51.9C278,266.8,277.9,265.5,277.9,264.2L277.9,264.2z
		 M304,292.4c0-0.2-6.7,34.9-13,47.5c3.6,7,3.8,9.8,2.3,14.4c11.3-8.6,20.6-21.5,27-37.5C316.2,308.4,313.4,304,304,292.4L304,292.4
		z M128.3,313.8l-0.7,0.5c1.7,2.6,1,3.2-1.8,5l-16.5,10.5c-3.8,2.5-4.7,2.6-6.9-0.4l-0.8,0.6l6.1,8.4l0.8-0.6
		c-1.2-1.9-1.9-3.7,0.2-5.1l19-12.1l0.1,0.1l-14.1,26l0.7,0.9l28.9-5.6l0.1,0.1l-17.3,14.3c-2,1.7-3.9,0.2-5.3-1.7l-0.8,0.6
		l7.6,10.4l0.8-0.6c-2.1-3-2.4-3.3,1.2-6.2l17.4-14.6c1.3-1.1,1.9-0.3,3.5,1.5l0.7-0.5l-4.3-6l-27.5,5.1l13.3-24.6L128.3,313.8
		L128.3,313.8z M376.9,315.5c-4.9,0.3-10,3.4-14.5,10.3c-1.4,2.2-3,4.8-4.4,7.1c-1.4,2.4-2.7,4.5-3.6,6.1l0.8,0.5l0.5-0.8
		c1.6-2.5,2.7-2.8,5.5-1l18.1,11.7c2.4,1.6,2.4,3,0.9,5.3l-0.5,0.7l0.8,0.5l8.7-13.5c6.9-10.6,2.4-20.5-3.9-24.6
		C382.7,316.2,379.8,315.4,376.9,315.5L376.9,315.5z M375.2,319.6c3,0.1,5.8,1.2,8.2,2.7c4.3,2.8,6.3,6.8,6.8,9.4
		c0.9,4.3,0.2,7.2-3.4,12.8c-2.1,3.3-2.8,3.1-4.5,1.9l-22.5-14.5c0.3-0.5,0.9-1.7,2-3.5c3.8-5.9,7.2-7.9,10.4-8.6
		C373.2,319.6,374.2,319.5,375.2,319.6L375.2,319.6z M274.8,320.1c-4,28.3-11,45.8-19.7,46.1c0.7,0,1.9-0.1,2.6-0.1
		c0.9-0.1,2-0.2,3-0.2c12-1.1,22.4-10.3,30.3-26C286.9,333.2,283.2,328.9,274.8,320.1L274.8,320.1z M351.6,342.4l-9,7.5l0.6,0.7
		c3.2-2.5,4.2-2.6,6.1-0.3l12.7,15.4l-33.8-3.9l-6.1,5l0.6,0.7c1.4-1.1,2.6-1.6,4-1.7l15.7,19c1.5,1.8,1.4,3.2-1,5.2l-0.2,0.1
		l0.6,0.7l9-7.4l-0.6-0.7c-3.3,2.7-4.4,2.6-6.7-0.1L329.8,366l37.3,4.4l1-0.8l-17.8-21.5c-1.2-1.5-1-2.5,1.9-4.9L351.6,342.4
		L351.6,342.4z M293.3,354.2c-7.7,5.8-15.9,9.3-25,10.7l2.4-0.4c2.5-0.4,2.4-0.5,7.1-1.5l2.8-0.8
		C289.1,359.5,290.7,358.2,293.3,354.2L293.3,354.2z M167.9,357.4l-0.3,1.1l-22.1,14.7c-3.9,2.6-4.6,2.7-7.3,0.8l-0.6,0.8l9.3,6.8
		l0.6-0.8l-0.6-0.5c-2.2-1.6-3-2.8-2.2-3.9c0.4-0.6,1.8-1.4,2.7-1.9l7-4.6l8.4,6.2l-2.7,9.3c-0.1,0.5-0.3,1.3-0.8,2
		c-0.8,1.1-1.9,0.7-4.2-0.9l-1-0.8l-0.6,0.8l11.1,8.2l0.6-0.8c-2-1.5-2.6-2.5-1.8-5.2l8-28.6L167.9,357.4L167.9,357.4z M166.7,361.8
		l-3.4,12l-7-5.1L166.7,361.8L166.7,361.8z M186.5,371.8l-0.3,0.9l1,0.4c2.7,1,3.2,2.1,2.2,5l-7,19.9c-1.1,3.2-2.4,3.6-5.2,2.6
		l-0.8-0.3l-0.3,0.9l13.4,4.7l0.3-0.9l-1.1-0.4c-2.6-0.9-3.5-2-2.5-4.9l2.8-8c0.7,0.3,1.3,0.6,2.4,1c1.3,0.4,2,0.7,3.3,1
		c0.9,1.2,2,3.1,3.4,5.9l2,4.2c2.7,5.7,4.2,8.2,12.6,10.8l0.3-0.8c-3.5-1.5-5.8-4.3-7.6-8.1l-2.4-5.1c-1.4-3-2.4-4.8-3.6-6.8
		c4.3,0.2,7.7-1.9,9-5.4c1.7-4.8-0.9-9.8-9.7-12.9c-3.1-1.1-4-1.4-6-2C190.6,373,187.7,372.2,186.5,371.8L186.5,371.8z M303.6,374.1
		l-4,1.7l0.8,0.8l1.2,26.5c0.2,4.6-0.1,5.4-3.1,6.7l0.4,0.9l10.7-4.5l-0.4-0.9l-0.7,0.3c-2.5,1.1-3.9,1.1-4.5-0.1
		c-0.3-0.6-0.3-2.3-0.3-3.3l-0.3-8.4l9.6-4l6.6,7.1c0.4,0.4,1,0.9,1.3,1.7c0.5,1.3-0.3,2-2.9,3.1l-1.2,0.5l0.4,0.9l12.7-5.3
		l-0.4-0.9c-2.3,1-3.5,0.9-5.4-1.2L303.6,374.1L303.6,374.1z M194.8,375.3c0.9,0.2,1.5,0.4,2.4,0.7c7.3,2.6,8,6.7,6.5,11.1
		c-2,5.7-6.2,6.7-11.5,4.8c-1.1-0.4-1.8-0.6-2.9-1.1L194.8,375.3L194.8,375.3z M302.8,379.1l8.6,9.1l-8,3.3L302.8,379.1L302.8,379.1
		z M274.9,383.7l-14.6,2.5l0.2,0.9l0.7-0.1c3.1-0.5,4.1,0.4,4.5,3l3.7,21.9c0.4,2.5-0.3,3.4-2.6,3.8l-1.6,0.3l0.2,0.9l22.1-3.7
		l2.6-7.8l-0.9,0.1c-2.4,4.8-3.1,6.1-6,6.6l-7.3,1.2c-1.4,0.2-2-0.2-2.3-1.5l-3.9-22.8c-0.5-3.1,0.3-3.5,3.5-4.1l1.8-0.3
		L274.9,383.7L274.9,383.7z M220.6,383.9l-0.1,0.9c3.2,0.4,4.3,1.2,6.4,5.2l7.7,14.6l-0.6,7c-0.2,2.5-1.2,3.5-4.3,3.3l-0.9-0.1
		l-0.1,0.9l13.7,1.2l0.1-0.9l-0.6-0.1c-3-0.3-3.9-1.4-3.7-4l0.6-7.5l9.5-13.3c1.6-2.2,3.2-3.5,6.6-3.4l0.1-0.9l-11.3-1l-0.1,1
		c3.2,0.3,4.1,1.2,2.2,3.8l-8.1,11.4l-6.9-13c-1.3-2.4-1-3.4,2.9-3l0.1-1L220.6,383.9L220.6,383.9z"/>
</g>
</svg>
